<?xml version="1.0" encoding="UTF-8" ?>
<svg version="1.1" width="1050" height="540" xmlns="http://www.w3.org/2000/svg">
<rect x="450" y="0" width="30" height="30" fill="#000000" />
<rect x="480" y="0" width="30" height="30" fill="#000000" />
<rect x="510" y="0" width="30" height="30" fill="#000000" />
<rect x="540" y="0" width="30" height="30" fill="#000000" />
<rect x="570" y="0" width="30" height="30" fill="#000000" />
<rect x="390" y="30" width="30" height="30" fill="#000000" />
<rect x="420" y="30" width="30" height="30" fill="#000000" />
<rect x="450" y="30" width="30" height="30" fill="#FFFBD4" />
<rect x="480" y="30" width="30" height="30" fill="#FFEE58" />
<rect x="510" y="30" width="30" height="30" fill="#FFEE58" />
<rect x="540" y="30" width="30" height="30" fill="#FFEE58" />
<rect x="570" y="30" width="30" height="30" fill="#FFEE58" />
<rect x="600" y="30" width="30" height="30" fill="#000000" />
<rect x="630" y="30" width="30" height="30" fill="#000000" />
<rect x="360" y="60" width="30" height="30" fill="#000000" />
<rect x="390" y="60" width="30" height="30" fill="#FFFBD4" />
<rect x="420" y="60" width="30" height="30" fill="#FFFBD4" />
<rect x="450" y="60" width="30" height="30" fill="#FFEE58" />
<rect x="480" y="60" width="30" height="30" fill="#000000" />
<rect x="510" y="60" width="30" height="30" fill="#000000" />
<rect x="540" y="60" width="30" height="30" fill="#000000" />
<rect x="570" y="60" width="30" height="30" fill="#FFEE58" />
<rect x="600" y="60" width="30" height="30" fill="#FFEE58" />
<rect x="630" y="60" width="30" height="30" fill="#FFEE58" />
<rect x="660" y="60" width="30" height="30" fill="#000000" />
<rect x="390" y="90" width="30" height="30" fill="#000000" />
<rect x="420" y="90" width="30" height="30" fill="#000000" />
<rect x="450" y="90" width="30" height="30" fill="#FFFBD4" />
<rect x="480" y="90" width="30" height="30" fill="#FFFBD4" />
<rect x="510" y="90" width="30" height="30" fill="#FFEE58" />
<rect x="540" y="90" width="30" height="30" fill="#FFFBD4" />
<rect x="570" y="90" width="30" height="30" fill="#FFEE58" />
<rect x="600" y="90" width="30" height="30" fill="#000000" />
<rect x="630" y="90" width="30" height="30" fill="#000000" />
<rect x="360" y="120" width="30" height="30" fill="#000000" />
<rect x="390" y="120" width="30" height="30" fill="#E0E0E0" />
<rect x="420" y="120" width="30" height="30" fill="#E0E0E0" />
<rect x="450" y="120" width="30" height="30" fill="#000000" />
<rect x="480" y="120" width="30" height="30" fill="#000000" />
<rect x="510" y="120" width="30" height="30" fill="#000000" />
<rect x="540" y="120" width="30" height="30" fill="#000000" />
<rect x="570" y="120" width="30" height="30" fill="#000000" />
<rect x="600" y="120" width="30" height="30" fill="#E0E0E0" />
<rect x="630" y="120" width="30" height="30" fill="#E0E0E0" />
<rect x="660" y="120" width="30" height="30" fill="#000000" />
<rect x="210" y="150" width="30" height="30" fill="#000000" />
<rect x="240" y="150" width="30" height="30" fill="#000000" />
<rect x="360" y="150" width="30" height="30" fill="#000000" />
<rect x="390" y="150" width="30" height="30" fill="#FFFFFF" />
<rect x="420" y="150" width="30" height="30" fill="#E0E0E0" />
<rect x="450" y="150" width="30" height="30" fill="#E0E0E0" />
<rect x="480" y="150" width="30" height="30" fill="#E0E0E0" />
<rect x="510" y="150" width="30" height="30" fill="#E0E0E0" />
<rect x="540" y="150" width="30" height="30" fill="#E0E0E0" />
<rect x="570" y="150" width="30" height="30" fill="#E0E0E0" />
<rect x="600" y="150" width="30" height="30" fill="#E0E0E0" />
<rect x="630" y="150" width="30" height="30" fill="#FFFFFF" />
<rect x="660" y="150" width="30" height="30" fill="#000000" />
<rect x="780" y="150" width="30" height="30" fill="#000000" />
<rect x="810" y="150" width="30" height="30" fill="#000000" />
<rect x="180" y="180" width="30" height="30" fill="#000000" />
<rect x="210" y="180" width="30" height="30" fill="#FFFFFF" />
<rect x="240" y="180" width="30" height="30" fill="#FFFFFF" />
<rect x="270" y="180" width="30" height="30" fill="#000000" />
<rect x="360" y="180" width="30" height="30" fill="#000000" />
<rect x="390" y="180" width="30" height="30" fill="#BDBDBD" />
<rect x="420" y="180" width="30" height="30" fill="#FFFFFF" />
<rect x="450" y="180" width="30" height="30" fill="#FFFFFF" />
<rect x="480" y="180" width="30" height="30" fill="#E0E0E0" />
<rect x="510" y="180" width="30" height="30" fill="#E0E0E0" />
<rect x="540" y="180" width="30" height="30" fill="#E0E0E0" />
<rect x="570" y="180" width="30" height="30" fill="#FFFFFF" />
<rect x="600" y="180" width="30" height="30" fill="#FFFFFF" />
<rect x="630" y="180" width="30" height="30" fill="#BDBDBD" />
<rect x="660" y="180" width="30" height="30" fill="#000000" />
<rect x="750" y="180" width="30" height="30" fill="#000000" />
<rect x="780" y="180" width="30" height="30" fill="#FFFFFF" />
<rect x="810" y="180" width="30" height="30" fill="#FFFFFF" />
<rect x="840" y="180" width="30" height="30" fill="#000000" />
<rect x="150" y="210" width="30" height="30" fill="#000000" />
<rect x="180" y="210" width="30" height="30" fill="#FFFFFF" />
<rect x="210" y="210" width="30" height="30" fill="#FFFFFF" />
<rect x="240" y="210" width="30" height="30" fill="#FFFFFF" />
<rect x="270" y="210" width="30" height="30" fill="#FFFFFF" />
<rect x="300" y="210" width="30" height="30" fill="#000000" />
<rect x="330" y="210" width="30" height="30" fill="#000000" />
<rect x="360" y="210" width="30" height="30" fill="#BDBDBD" />
<rect x="390" y="210" width="30" height="30" fill="#BDBDBD" />
<rect x="420" y="210" width="30" height="30" fill="#BDBDBD" />
<rect x="450" y="210" width="30" height="30" fill="#BDBDBD" />
<rect x="480" y="210" width="30" height="30" fill="#000000" />
<rect x="510" y="210" width="30" height="30" fill="#BDBDBD" />
<rect x="540" y="210" width="30" height="30" fill="#000000" />
<rect x="570" y="210" width="30" height="30" fill="#BDBDBD" />
<rect x="600" y="210" width="30" height="30" fill="#BDBDBD" />
<rect x="630" y="210" width="30" height="30" fill="#BDBDBD" />
<rect x="660" y="210" width="30" height="30" fill="#BDBDBD" />
<rect x="690" y="210" width="30" height="30" fill="#000000" />
<rect x="720" y="210" width="30" height="30" fill="#000000" />
<rect x="750" y="210" width="30" height="30" fill="#FFFFFF" />
<rect x="780" y="210" width="30" height="30" fill="#FFFFFF" />
<rect x="810" y="210" width="30" height="30" fill="#FFFFFF" />
<rect x="840" y="210" width="30" height="30" fill="#FFFFFF" />
<rect x="870" y="210" width="30" height="30" fill="#000000" />
<rect x="120" y="240" width="30" height="30" fill="#000000" />
<rect x="150" y="240" width="30" height="30" fill="#FFFFFF" />
<rect x="180" y="240" width="30" height="30" fill="#FFFFFF" />
<rect x="210" y="240" width="30" height="30" fill="#FFFFFF" />
<rect x="240" y="240" width="30" height="30" fill="#FFFFFF" />
<rect x="270" y="240" width="30" height="30" fill="#FFFFFF" />
<rect x="300" y="240" width="30" height="30" fill="#E0E0E0" />
<rect x="330" y="240" width="30" height="30" fill="#000000" />
<rect x="360" y="240" width="30" height="30" fill="#BDBDBD" />
<rect x="390" y="240" width="30" height="30" fill="#BDBDBD" />
<rect x="420" y="240" width="30" height="30" fill="#000000" />
<rect x="450" y="240" width="30" height="30" fill="#000000" />
<rect x="480" y="240" width="30" height="30" fill="#FFEDB5" />
<rect x="510" y="240" width="30" height="30" fill="#FFEDB5" />
<rect x="540" y="240" width="30" height="30" fill="#FFEDB5" />
<rect x="570" y="240" width="30" height="30" fill="#000000" />
<rect x="600" y="240" width="30" height="30" fill="#000000" />
<rect x="630" y="240" width="30" height="30" fill="#BDBDBD" />
<rect x="660" y="240" width="30" height="30" fill="#BDBDBD" />
<rect x="690" y="240" width="30" height="30" fill="#000000" />
<rect x="720" y="240" width="30" height="30" fill="#E0E0E0" />
<rect x="750" y="240" width="30" height="30" fill="#FFFFFF" />
<rect x="780" y="240" width="30" height="30" fill="#FFFFFF" />
<rect x="810" y="240" width="30" height="30" fill="#FFFFFF" />
<rect x="840" y="240" width="30" height="30" fill="#FFFFFF" />
<rect x="870" y="240" width="30" height="30" fill="#FFFFFF" />
<rect x="900" y="240" width="30" height="30" fill="#000000" />
<rect x="90" y="270" width="30" height="30" fill="#000000" />
<rect x="120" y="270" width="30" height="30" fill="#FFFFFF" />
<rect x="150" y="270" width="30" height="30" fill="#FFFFFF" />
<rect x="180" y="270" width="30" height="30" fill="#FFFFFF" />
<rect x="210" y="270" width="30" height="30" fill="#FFFFFF" />
<rect x="240" y="270" width="30" height="30" fill="#FFFFFF" />
<rect x="270" y="270" width="30" height="30" fill="#FFFFFF" />
<rect x="300" y="270" width="30" height="30" fill="#E0E0E0" />
<rect x="330" y="270" width="30" height="30" fill="#000000" />
<rect x="360" y="270" width="30" height="30" fill="#BDBDBD" />
<rect x="390" y="270" width="30" height="30" fill="#000000" />
<rect x="420" y="270" width="30" height="30" fill="#FFEDB5" />
<rect x="450" y="270" width="30" height="30" fill="#000000" />
<rect x="480" y="270" width="30" height="30" fill="#FFEDB5" />
<rect x="510" y="270" width="30" height="30" fill="#FFEDB5" />
<rect x="540" y="270" width="30" height="30" fill="#FFEDB5" />
<rect x="570" y="270" width="30" height="30" fill="#000000" />
<rect x="600" y="270" width="30" height="30" fill="#FFEDB5" />
<rect x="630" y="270" width="30" height="30" fill="#000000" />
<rect x="660" y="270" width="30" height="30" fill="#BDBDBD" />
<rect x="690" y="270" width="30" height="30" fill="#000000" />
<rect x="720" y="270" width="30" height="30" fill="#E0E0E0" />
<rect x="750" y="270" width="30" height="30" fill="#FFFFFF" />
<rect x="780" y="270" width="30" height="30" fill="#FFFFFF" />
<rect x="810" y="270" width="30" height="30" fill="#FFFFFF" />
<rect x="840" y="270" width="30" height="30" fill="#FFFFFF" />
<rect x="870" y="270" width="30" height="30" fill="#FFFFFF" />
<rect x="900" y="270" width="30" height="30" fill="#FFFFFF" />
<rect x="930" y="270" width="30" height="30" fill="#000000" />
<rect x="60" y="300" width="30" height="30" fill="#000000" />
<rect x="90" y="300" width="30" height="30" fill="#FFFFFF" />
<rect x="120" y="300" width="30" height="30" fill="#FFFFFF" />
<rect x="150" y="300" width="30" height="30" fill="#000000" />
<rect x="180" y="300" width="30" height="30" fill="#FFFFFF" />
<rect x="210" y="300" width="30" height="30" fill="#000000" />
<rect x="240" y="300" width="30" height="30" fill="#FFFFFF" />
<rect x="270" y="300" width="30" height="30" fill="#000000" />
<rect x="300" y="300" width="30" height="30" fill="#E0E0E0" />
<rect x="330" y="300" width="30" height="30" fill="#000000" />
<rect x="360" y="300" width="30" height="30" fill="#BDBDBD" />
<rect x="390" y="300" width="30" height="30" fill="#000000" />
<rect x="420" y="300" width="30" height="30" fill="#000000" />
<rect x="450" y="300" width="30" height="30" fill="#FFEDB5" />
<rect x="480" y="300" width="30" height="30" fill="#FFEDB5" />
<rect x="510" y="300" width="30" height="30" fill="#FFEDB5" />
<rect x="540" y="300" width="30" height="30" fill="#FFEDB5" />
<rect x="570" y="300" width="30" height="30" fill="#FFEDB5" />
<rect x="600" y="300" width="30" height="30" fill="#000000" />
<rect x="630" y="300" width="30" height="30" fill="#000000" />
<rect x="660" y="300" width="30" height="30" fill="#BDBDBD" />
<rect x="690" y="300" width="30" height="30" fill="#000000" />
<rect x="720" y="300" width="30" height="30" fill="#E0E0E0" />
<rect x="750" y="300" width="30" height="30" fill="#000000" />
<rect x="780" y="300" width="30" height="30" fill="#FFFFFF" />
<rect x="810" y="300" width="30" height="30" fill="#000000" />
<rect x="840" y="300" width="30" height="30" fill="#FFFFFF" />
<rect x="870" y="300" width="30" height="30" fill="#000000" />
<rect x="900" y="300" width="30" height="30" fill="#FFFFFF" />
<rect x="930" y="300" width="30" height="30" fill="#FFFFFF" />
<rect x="960" y="300" width="30" height="30" fill="#000000" />
<rect x="30" y="330" width="30" height="30" fill="#000000" />
<rect x="60" y="330" width="30" height="30" fill="#FFFFFF" />
<rect x="90" y="330" width="30" height="30" fill="#FFFFFF" />
<rect x="120" y="330" width="30" height="30" fill="#000000" />
<rect x="150" y="330" width="30" height="30" fill="#FFFFFF" />
<rect x="180" y="330" width="30" height="30" fill="#FFFFFF" />
<rect x="210" y="330" width="30" height="30" fill="#000000" />
<rect x="240" y="330" width="30" height="30" fill="#FFFFFF" />
<rect x="270" y="330" width="30" height="30" fill="#000000" />
<rect x="300" y="330" width="30" height="30" fill="#E0E0E0" />
<rect x="330" y="330" width="30" height="30" fill="#000000" />
<rect x="360" y="330" width="30" height="30" fill="#000000" />
<rect x="390" y="330" width="30" height="30" fill="#FFFFFF" />
<rect x="420" y="330" width="30" height="30" fill="#FFFFFF" />
<rect x="450" y="330" width="30" height="30" fill="#000000" />
<rect x="480" y="330" width="30" height="30" fill="#000000" />
<rect x="510" y="330" width="30" height="30" fill="#000000" />
<rect x="540" y="330" width="30" height="30" fill="#000000" />
<rect x="570" y="330" width="30" height="30" fill="#000000" />
<rect x="600" y="330" width="30" height="30" fill="#FFFFFF" />
<rect x="630" y="330" width="30" height="30" fill="#FFFFFF" />
<rect x="660" y="330" width="30" height="30" fill="#000000" />
<rect x="690" y="330" width="30" height="30" fill="#000000" />
<rect x="720" y="330" width="30" height="30" fill="#E0E0E0" />
<rect x="750" y="330" width="30" height="30" fill="#000000" />
<rect x="780" y="330" width="30" height="30" fill="#FFFFFF" />
<rect x="810" y="330" width="30" height="30" fill="#000000" />
<rect x="840" y="330" width="30" height="30" fill="#FFFFFF" />
<rect x="870" y="330" width="30" height="30" fill="#FFFFFF" />
<rect x="900" y="330" width="30" height="30" fill="#000000" />
<rect x="930" y="330" width="30" height="30" fill="#FFFFFF" />
<rect x="960" y="330" width="30" height="30" fill="#FFFFFF" />
<rect x="990" y="330" width="30" height="30" fill="#000000" />
<rect x="0" y="360" width="30" height="30" fill="#000000" />
<rect x="30" y="360" width="30" height="30" fill="#E0E0E0" />
<rect x="60" y="360" width="30" height="30" fill="#E0E0E0" />
<rect x="90" y="360" width="30" height="30" fill="#000000" />
<rect x="120" y="360" width="30" height="30" fill="#FFFFFF" />
<rect x="150" y="360" width="30" height="30" fill="#FFFFFF" />
<rect x="180" y="360" width="30" height="30" fill="#000000" />
<rect x="210" y="360" width="30" height="30" fill="#E0E0E0" />
<rect x="240" y="360" width="30" height="30" fill="#E0E0E0" />
<rect x="270" y="360" width="30" height="30" fill="#000000" />
<rect x="300" y="360" width="30" height="30" fill="#E0E0E0" />
<rect x="330" y="360" width="30" height="30" fill="#000000" />
<rect x="360" y="360" width="30" height="30" fill="#FFEDB5" />
<rect x="390" y="360" width="30" height="30" fill="#000000" />
<rect x="420" y="360" width="30" height="30" fill="#E0E0E0" />
<rect x="450" y="360" width="30" height="30" fill="#FFFFFF" />
<rect x="480" y="360" width="30" height="30" fill="#FFFFFF" />
<rect x="510" y="360" width="30" height="30" fill="#FFFFFF" />
<rect x="540" y="360" width="30" height="30" fill="#FFFFFF" />
<rect x="570" y="360" width="30" height="30" fill="#FFFFFF" />
<rect x="600" y="360" width="30" height="30" fill="#E0E0E0" />
<rect x="630" y="360" width="30" height="30" fill="#000000" />
<rect x="660" y="360" width="30" height="30" fill="#FFEDB5" />
<rect x="690" y="360" width="30" height="30" fill="#000000" />
<rect x="720" y="360" width="30" height="30" fill="#E0E0E0" />
<rect x="750" y="360" width="30" height="30" fill="#000000" />
<rect x="780" y="360" width="30" height="30" fill="#E0E0E0" />
<rect x="810" y="360" width="30" height="30" fill="#E0E0E0" />
<rect x="840" y="360" width="30" height="30" fill="#000000" />
<rect x="870" y="360" width="30" height="30" fill="#FFFFFF" />
<rect x="900" y="360" width="30" height="30" fill="#FFFFFF" />
<rect x="930" y="360" width="30" height="30" fill="#000000" />
<rect x="960" y="360" width="30" height="30" fill="#E0E0E0" />
<rect x="990" y="360" width="30" height="30" fill="#E0E0E0" />
<rect x="1020" y="360" width="30" height="30" fill="#000000" />
<rect x="30" y="390" width="30" height="30" fill="#000000" />
<rect x="60" y="390" width="30" height="30" fill="#000000" />
<rect x="90" y="390" width="30" height="30" fill="#E0E0E0" />
<rect x="120" y="390" width="30" height="30" fill="#E0E0E0" />
<rect x="150" y="390" width="30" height="30" fill="#000000" />
<rect x="180" y="390" width="30" height="30" fill="#E0E0E0" />
<rect x="210" y="390" width="30" height="30" fill="#E0E0E0" />
<rect x="240" y="390" width="30" height="30" fill="#000000" />
<rect x="270" y="390" width="30" height="30" fill="#E0E0E0" />
<rect x="300" y="390" width="30" height="30" fill="#E0E0E0" />
<rect x="330" y="390" width="30" height="30" fill="#000000" />
<rect x="360" y="390" width="30" height="30" fill="#000000" />
<rect x="390" y="390" width="30" height="30" fill="#FFFFFF" />
<rect x="420" y="390" width="30" height="30" fill="#FFFFFF" />
<rect x="450" y="390" width="30" height="30" fill="#FFFFFF" />
<rect x="480" y="390" width="30" height="30" fill="#FFFFFF" />
<rect x="510" y="390" width="30" height="30" fill="#FFFFFF" />
<rect x="540" y="390" width="30" height="30" fill="#FFFFFF" />
<rect x="570" y="390" width="30" height="30" fill="#FFFFFF" />
<rect x="600" y="390" width="30" height="30" fill="#FFFFFF" />
<rect x="630" y="390" width="30" height="30" fill="#FFFFFF" />
<rect x="660" y="390" width="30" height="30" fill="#000000" />
<rect x="690" y="390" width="30" height="30" fill="#000000" />
<rect x="720" y="390" width="30" height="30" fill="#E0E0E0" />
<rect x="750" y="390" width="30" height="30" fill="#E0E0E0" />
<rect x="780" y="390" width="30" height="30" fill="#000000" />
<rect x="810" y="390" width="30" height="30" fill="#E0E0E0" />
<rect x="840" y="390" width="30" height="30" fill="#E0E0E0" />
<rect x="870" y="390" width="30" height="30" fill="#000000" />
<rect x="900" y="390" width="30" height="30" fill="#E0E0E0" />
<rect x="930" y="390" width="30" height="30" fill="#E0E0E0" />
<rect x="960" y="390" width="30" height="30" fill="#000000" />
<rect x="990" y="390" width="30" height="30" fill="#000000" />
<rect x="90" y="420" width="30" height="30" fill="#000000" />
<rect x="120" y="420" width="30" height="30" fill="#000000" />
<rect x="150" y="420" width="30" height="30" fill="#000000" />
<rect x="180" y="420" width="30" height="30" fill="#000000" />
<rect x="210" y="420" width="30" height="30" fill="#000000" />
<rect x="240" y="420" width="30" height="30" fill="#000000" />
<rect x="270" y="420" width="30" height="30" fill="#E0E0E0" />
<rect x="300" y="420" width="30" height="30" fill="#E0E0E0" />
<rect x="330" y="420" width="30" height="30" fill="#000000" />
<rect x="360" y="420" width="30" height="30" fill="#FFFFFF" />
<rect x="390" y="420" width="30" height="30" fill="#FFFFFF" />
<rect x="420" y="420" width="30" height="30" fill="#FFFFFF" />
<rect x="450" y="420" width="30" height="30" fill="#E0E0E0" />
<rect x="480" y="420" width="30" height="30" fill="#FFFFFF" />
<rect x="510" y="420" width="30" height="30" fill="#FFFFFF" />
<rect x="540" y="420" width="30" height="30" fill="#FFFFFF" />
<rect x="570" y="420" width="30" height="30" fill="#E0E0E0" />
<rect x="600" y="420" width="30" height="30" fill="#FFFFFF" />
<rect x="630" y="420" width="30" height="30" fill="#FFFFFF" />
<rect x="660" y="420" width="30" height="30" fill="#FFFFFF" />
<rect x="690" y="420" width="30" height="30" fill="#000000" />
<rect x="720" y="420" width="30" height="30" fill="#E0E0E0" />
<rect x="750" y="420" width="30" height="30" fill="#E0E0E0" />
<rect x="780" y="420" width="30" height="30" fill="#000000" />
<rect x="810" y="420" width="30" height="30" fill="#000000" />
<rect x="840" y="420" width="30" height="30" fill="#000000" />
<rect x="870" y="420" width="30" height="30" fill="#000000" />
<rect x="900" y="420" width="30" height="30" fill="#000000" />
<rect x="930" y="420" width="30" height="30" fill="#000000" />
<rect x="270" y="450" width="30" height="30" fill="#000000" />
<rect x="300" y="450" width="30" height="30" fill="#000000" />
<rect x="330" y="450" width="30" height="30" fill="#000000" />
<rect x="360" y="450" width="30" height="30" fill="#FFFFFF" />
<rect x="390" y="450" width="30" height="30" fill="#FFFFFF" />
<rect x="420" y="450" width="30" height="30" fill="#E0E0E0" />
<rect x="450" y="450" width="30" height="30" fill="#FFFFFF" />
<rect x="480" y="450" width="30" height="30" fill="#FFFFFF" />
<rect x="510" y="450" width="30" height="30" fill="#FFFFFF" />
<rect x="540" y="450" width="30" height="30" fill="#FFFFFF" />
<rect x="570" y="450" width="30" height="30" fill="#FFFFFF" />
<rect x="600" y="450" width="30" height="30" fill="#E0E0E0" />
<rect x="630" y="450" width="30" height="30" fill="#FFFFFF" />
<rect x="660" y="450" width="30" height="30" fill="#FFFFFF" />
<rect x="690" y="450" width="30" height="30" fill="#000000" />
<rect x="720" y="450" width="30" height="30" fill="#000000" />
<rect x="750" y="450" width="30" height="30" fill="#000000" />
<rect x="360" y="480" width="30" height="30" fill="#000000" />
<rect x="390" y="480" width="30" height="30" fill="#000000" />
<rect x="420" y="480" width="30" height="30" fill="#E0E0E0" />
<rect x="450" y="480" width="30" height="30" fill="#FFFFFF" />
<rect x="480" y="480" width="30" height="30" fill="#FFFFFF" />
<rect x="510" y="480" width="30" height="30" fill="#FFFFFF" />
<rect x="540" y="480" width="30" height="30" fill="#FFFFFF" />
<rect x="570" y="480" width="30" height="30" fill="#FFFFFF" />
<rect x="600" y="480" width="30" height="30" fill="#E0E0E0" />
<rect x="630" y="480" width="30" height="30" fill="#000000" />
<rect x="660" y="480" width="30" height="30" fill="#000000" />
<rect x="420" y="510" width="30" height="30" fill="#000000" />
<rect x="450" y="510" width="30" height="30" fill="#000000" />
<rect x="480" y="510" width="30" height="30" fill="#000000" />
<rect x="510" y="510" width="30" height="30" fill="#000000" />
<rect x="540" y="510" width="30" height="30" fill="#000000" />
<rect x="570" y="510" width="30" height="30" fill="#000000" />
<rect x="600" y="510" width="30" height="30" fill="#000000" />
</svg>