<?xml version="1.0" encoding="UTF-8" ?>
<svg version="1.1" width="270" height="510" xmlns="http://www.w3.org/2000/svg">
<rect x="60" y="0" width="30" height="30" fill="#000000" />
<rect x="90" y="0" width="30" height="30" fill="#000000" />
<rect x="120" y="0" width="30" height="30" fill="#000000" />
<rect x="150" y="0" width="30" height="30" fill="#000000" />
<rect x="180" y="0" width="30" height="30" fill="#000000" />
<rect x="30" y="30" width="30" height="30" fill="#000000" />
<rect x="60" y="30" width="30" height="30" fill="#29B6F6" />
<rect x="90" y="30" width="30" height="30" fill="#81D4FA" />
<rect x="120" y="30" width="30" height="30" fill="#81D4FA" />
<rect x="150" y="30" width="30" height="30" fill="#81D4FA" />
<rect x="180" y="30" width="30" height="30" fill="#29B6F6" />
<rect x="210" y="30" width="30" height="30" fill="#000000" />
<rect x="60" y="60" width="30" height="30" fill="#000000" />
<rect x="90" y="60" width="30" height="30" fill="#29B6F6" />
<rect x="120" y="60" width="30" height="30" fill="#29B6F6" />
<rect x="150" y="60" width="30" height="30" fill="#29B6F6" />
<rect x="180" y="60" width="30" height="30" fill="#000000" />
<rect x="30" y="90" width="30" height="30" fill="#000000" />
<rect x="60" y="90" width="30" height="30" fill="#29B6F6" />
<rect x="90" y="90" width="30" height="30" fill="#81D4FA" />
<rect x="120" y="90" width="30" height="30" fill="#81D4FA" />
<rect x="150" y="90" width="30" height="30" fill="#81D4FA" />
<rect x="180" y="90" width="30" height="30" fill="#29B6F6" />
<rect x="210" y="90" width="30" height="30" fill="#000000" />
<rect x="0" y="120" width="30" height="30" fill="#000000" />
<rect x="30" y="120" width="30" height="30" fill="#29B6F6" />
<rect x="60" y="120" width="30" height="30" fill="#000000" />
<rect x="90" y="120" width="30" height="30" fill="#29B6F6" />
<rect x="120" y="120" width="30" height="30" fill="#000000" />
<rect x="150" y="120" width="30" height="30" fill="#29B6F6" />
<rect x="180" y="120" width="30" height="30" fill="#000000" />
<rect x="210" y="120" width="30" height="30" fill="#29B6F6" />
<rect x="240" y="120" width="30" height="30" fill="#000000" />
<rect x="30" y="150" width="30" height="30" fill="#000000" />
<rect x="60" y="150" width="30" height="30" fill="#EEEEEE" />
<rect x="90" y="150" width="30" height="30" fill="#000000" />
<rect x="120" y="150" width="30" height="30" fill="#EEEEEE" />
<rect x="150" y="150" width="30" height="30" fill="#000000" />
<rect x="180" y="150" width="30" height="30" fill="#EEEEEE" />
<rect x="210" y="150" width="30" height="30" fill="#000000" />
<rect x="30" y="180" width="30" height="30" fill="#000000" />
<rect x="60" y="180" width="30" height="30" fill="#EEEEEE" />
<rect x="90" y="180" width="30" height="30" fill="#FFFFFF" />
<rect x="120" y="180" width="30" height="30" fill="#FFFFFF" />
<rect x="150" y="180" width="30" height="30" fill="#FFFFFF" />
<rect x="180" y="180" width="30" height="30" fill="#EEEEEE" />
<rect x="210" y="180" width="30" height="30" fill="#000000" />
<rect x="0" y="210" width="30" height="30" fill="#000000" />
<rect x="30" y="210" width="30" height="30" fill="#EEEEEE" />
<rect x="60" y="210" width="30" height="30" fill="#FFFFFF" />
<rect x="90" y="210" width="30" height="30" fill="#FFFFFF" />
<rect x="120" y="210" width="30" height="30" fill="#FFFFFF" />
<rect x="150" y="210" width="30" height="30" fill="#FFFFFF" />
<rect x="180" y="210" width="30" height="30" fill="#FFFFFF" />
<rect x="210" y="210" width="30" height="30" fill="#EEEEEE" />
<rect x="240" y="210" width="30" height="30" fill="#000000" />
<rect x="0" y="240" width="30" height="30" fill="#000000" />
<rect x="30" y="240" width="30" height="30" fill="#C41411" />
<rect x="60" y="240" width="30" height="30" fill="#E51C23" />
<rect x="90" y="240" width="30" height="30" fill="#E51C23" />
<rect x="120" y="240" width="30" height="30" fill="#E51C23" />
<rect x="150" y="240" width="30" height="30" fill="#E51C23" />
<rect x="180" y="240" width="30" height="30" fill="#E51C23" />
<rect x="210" y="240" width="30" height="30" fill="#C41411" />
<rect x="240" y="240" width="30" height="30" fill="#000000" />
<rect x="0" y="270" width="30" height="30" fill="#000000" />
<rect x="30" y="270" width="30" height="30" fill="#C41411" />
<rect x="60" y="270" width="30" height="30" fill="#FFFFFF" />
<rect x="90" y="270" width="30" height="30" fill="#E51C23" />
<rect x="120" y="270" width="30" height="30" fill="#FFFFFF" />
<rect x="150" y="270" width="30" height="30" fill="#E51C23" />
<rect x="180" y="270" width="30" height="30" fill="#FFFFFF" />
<rect x="210" y="270" width="30" height="30" fill="#C41411" />
<rect x="240" y="270" width="30" height="30" fill="#000000" />
<rect x="0" y="300" width="30" height="30" fill="#000000" />
<rect x="30" y="300" width="30" height="30" fill="#C41411" />
<rect x="60" y="300" width="30" height="30" fill="#E51C23" />
<rect x="90" y="300" width="30" height="30" fill="#E51C23" />
<rect x="120" y="300" width="30" height="30" fill="#E51C23" />
<rect x="150" y="300" width="30" height="30" fill="#E51C23" />
<rect x="180" y="300" width="30" height="30" fill="#E51C23" />
<rect x="210" y="300" width="30" height="30" fill="#C41411" />
<rect x="240" y="300" width="30" height="30" fill="#000000" />
<rect x="0" y="330" width="30" height="30" fill="#000000" />
<rect x="30" y="330" width="30" height="30" fill="#EEEEEE" />
<rect x="60" y="330" width="30" height="30" fill="#FFFFFF" />
<rect x="90" y="330" width="30" height="30" fill="#FFFFFF" />
<rect x="120" y="330" width="30" height="30" fill="#FFFFFF" />
<rect x="150" y="330" width="30" height="30" fill="#FFFFFF" />
<rect x="180" y="330" width="30" height="30" fill="#FFFFFF" />
<rect x="210" y="330" width="30" height="30" fill="#EEEEEE" />
<rect x="240" y="330" width="30" height="30" fill="#000000" />
<rect x="0" y="360" width="30" height="30" fill="#000000" />
<rect x="30" y="360" width="30" height="30" fill="#EEEEEE" />
<rect x="60" y="360" width="30" height="30" fill="#FFFFFF" />
<rect x="90" y="360" width="30" height="30" fill="#FFFFFF" />
<rect x="120" y="360" width="30" height="30" fill="#FFFFFF" />
<rect x="150" y="360" width="30" height="30" fill="#FFFFFF" />
<rect x="180" y="360" width="30" height="30" fill="#FFFFFF" />
<rect x="210" y="360" width="30" height="30" fill="#EEEEEE" />
<rect x="240" y="360" width="30" height="30" fill="#000000" />
<rect x="0" y="390" width="30" height="30" fill="#000000" />
<rect x="30" y="390" width="30" height="30" fill="#EEEEEE" />
<rect x="60" y="390" width="30" height="30" fill="#FFFFFF" />
<rect x="90" y="390" width="30" height="30" fill="#FFFFFF" />
<rect x="120" y="390" width="30" height="30" fill="#FFFFFF" />
<rect x="150" y="390" width="30" height="30" fill="#FFFFFF" />
<rect x="180" y="390" width="30" height="30" fill="#FFFFFF" />
<rect x="210" y="390" width="30" height="30" fill="#EEEEEE" />
<rect x="240" y="390" width="30" height="30" fill="#000000" />
<rect x="0" y="420" width="30" height="30" fill="#000000" />
<rect x="30" y="420" width="30" height="30" fill="#EEEEEE" />
<rect x="60" y="420" width="30" height="30" fill="#EEEEEE" />
<rect x="90" y="420" width="30" height="30" fill="#FFFFFF" />
<rect x="120" y="420" width="30" height="30" fill="#FFFFFF" />
<rect x="150" y="420" width="30" height="30" fill="#FFFFFF" />
<rect x="180" y="420" width="30" height="30" fill="#EEEEEE" />
<rect x="210" y="420" width="30" height="30" fill="#EEEEEE" />
<rect x="240" y="420" width="30" height="30" fill="#000000" />
<rect x="30" y="450" width="30" height="30" fill="#000000" />
<rect x="60" y="450" width="30" height="30" fill="#EEEEEE" />
<rect x="90" y="450" width="30" height="30" fill="#EEEEEE" />
<rect x="120" y="450" width="30" height="30" fill="#EEEEEE" />
<rect x="150" y="450" width="30" height="30" fill="#EEEEEE" />
<rect x="180" y="450" width="30" height="30" fill="#EEEEEE" />
<rect x="210" y="450" width="30" height="30" fill="#000000" />
<rect x="60" y="480" width="30" height="30" fill="#000000" />
<rect x="90" y="480" width="30" height="30" fill="#000000" />
<rect x="120" y="480" width="30" height="30" fill="#000000" />
<rect x="150" y="480" width="30" height="30" fill="#000000" />
<rect x="180" y="480" width="30" height="30" fill="#000000" />
</svg>