<?xml version="1.0" encoding="UTF-8" ?>
<svg version="1.1" width="390" height="390" xmlns="http://www.w3.org/2000/svg">
<rect x="180" y="0" width="30" height="30" fill="#000000" />
<rect x="180" y="30" width="30" height="30" fill="#000000" />
<rect x="150" y="60" width="30" height="30" fill="#000000" />
<rect x="180" y="60" width="30" height="30" fill="#FFEE58" />
<rect x="210" y="60" width="30" height="30" fill="#000000" />
<rect x="150" y="90" width="30" height="30" fill="#000000" />
<rect x="180" y="90" width="30" height="30" fill="#FFEE58" />
<rect x="210" y="90" width="30" height="30" fill="#000000" />
<rect x="120" y="120" width="30" height="30" fill="#000000" />
<rect x="150" y="120" width="30" height="30" fill="#FFEE58" />
<rect x="180" y="120" width="30" height="30" fill="#FFFACC" />
<rect x="210" y="120" width="30" height="30" fill="#FFEE58" />
<rect x="240" y="120" width="30" height="30" fill="#000000" />
<rect x="60" y="150" width="30" height="30" fill="#000000" />
<rect x="90" y="150" width="30" height="30" fill="#000000" />
<rect x="120" y="150" width="30" height="30" fill="#FFEE58" />
<rect x="150" y="150" width="30" height="30" fill="#FFFACC" />
<rect x="180" y="150" width="30" height="30" fill="#FFFACC" />
<rect x="210" y="150" width="30" height="30" fill="#FFFACC" />
<rect x="240" y="150" width="30" height="30" fill="#FFEE58" />
<rect x="270" y="150" width="30" height="30" fill="#000000" />
<rect x="300" y="150" width="30" height="30" fill="#000000" />
<rect x="0" y="180" width="30" height="30" fill="#000000" />
<rect x="30" y="180" width="30" height="30" fill="#000000" />
<rect x="60" y="180" width="30" height="30" fill="#FFEE58" />
<rect x="90" y="180" width="30" height="30" fill="#FFEE58" />
<rect x="120" y="180" width="30" height="30" fill="#FFFACC" />
<rect x="150" y="180" width="30" height="30" fill="#FFFACC" />
<rect x="180" y="180" width="30" height="30" fill="#FFFACC" />
<rect x="210" y="180" width="30" height="30" fill="#FFFACC" />
<rect x="240" y="180" width="30" height="30" fill="#FFFACC" />
<rect x="270" y="180" width="30" height="30" fill="#FFEE58" />
<rect x="300" y="180" width="30" height="30" fill="#FFEE58" />
<rect x="330" y="180" width="30" height="30" fill="#000000" />
<rect x="360" y="180" width="30" height="30" fill="#000000" />
<rect x="60" y="210" width="30" height="30" fill="#000000" />
<rect x="90" y="210" width="30" height="30" fill="#000000" />
<rect x="120" y="210" width="30" height="30" fill="#FFEE58" />
<rect x="150" y="210" width="30" height="30" fill="#FFFACC" />
<rect x="180" y="210" width="30" height="30" fill="#FFFACC" />
<rect x="210" y="210" width="30" height="30" fill="#FFFACC" />
<rect x="240" y="210" width="30" height="30" fill="#FFEE58" />
<rect x="270" y="210" width="30" height="30" fill="#000000" />
<rect x="300" y="210" width="30" height="30" fill="#000000" />
<rect x="120" y="240" width="30" height="30" fill="#000000" />
<rect x="150" y="240" width="30" height="30" fill="#FFEE58" />
<rect x="180" y="240" width="30" height="30" fill="#FFFACC" />
<rect x="210" y="240" width="30" height="30" fill="#FFEE58" />
<rect x="240" y="240" width="30" height="30" fill="#000000" />
<rect x="150" y="270" width="30" height="30" fill="#000000" />
<rect x="180" y="270" width="30" height="30" fill="#FFEE58" />
<rect x="210" y="270" width="30" height="30" fill="#000000" />
<rect x="150" y="300" width="30" height="30" fill="#000000" />
<rect x="180" y="300" width="30" height="30" fill="#FFEE58" />
<rect x="210" y="300" width="30" height="30" fill="#000000" />
<rect x="180" y="330" width="30" height="30" fill="#000000" />
<rect x="180" y="360" width="30" height="30" fill="#000000" />
</svg>